<?xml version="1.0" encoding="UTF-8" standalone="no"?>
<svg
   xmlns:dc="http://purl.org/dc/elements/1.1/"
   xmlns:cc="http://creativecommons.org/ns#"
   xmlns:rdf="http://www.w3.org/1999/02/22-rdf-syntax-ns#"
   xmlns:svg="http://www.w3.org/2000/svg"
   xmlns="http://www.w3.org/2000/svg"
   xmlns:sodipodi="http://sodipodi.sourceforge.net/DTD/sodipodi-0.dtd"
   xmlns:inkscape="http://www.inkscape.org/namespaces/inkscape"
   sodipodi:docname="sugerencias.svg"
   inkscape:version="1.0 (4035a4fb49, 2020-05-01)"
   id="svg1317"
   version="1.1"
   viewBox="0 0 123.97181 130.49931"
   height="130.49931mm"
   width="123.97181mm">
  <defs
     id="defs1311" />
  <sodipodi:namedview
     inkscape:window-maximized="0"
     inkscape:window-y="0"
     inkscape:window-x="52"
     inkscape:window-height="1040"
     inkscape:window-width="1260"
     showgrid="false"
     inkscape:document-rotation="0"
     inkscape:current-layer="layer1"
     inkscape:document-units="mm"
     inkscape:cy="264.44752"
     inkscape:cx="230.12323"
     inkscape:zoom="0.98994949"
     inkscape:pageshadow="2"
     inkscape:pageopacity="0.0"
     borderopacity="1.0"
     bordercolor="#666666"
     pagecolor="#ffffff"
     id="base" />
  <metadata
     id="metadata1314">
    <rdf:RDF>
      <cc:Work
         rdf:about="">
        <dc:format>image/svg+xml</dc:format>
        <dc:type
           rdf:resource="http://purl.org/dc/dcmitype/StillImage" />
        <dc:title></dc:title>
      </cc:Work>
    </rdf:RDF>
  </metadata>
  <g
     transform="translate(-0.00219024,4.0175121)"
     id="layer1"
     inkscape:groupmode="layer"
     inkscape:label="Capa 1">
    <g
       id="g2116">
      <path
         class="fil0"
         d="M 62.610367,38.449372 H 34.062053 c -3.124057,0 -5.663944,-2.539886 -5.663944,-5.663946 V 1.6464326 c 0,-3.1240593 2.539887,-5.6639447 5.663944,-5.6639447 h 28.548314 c 3.124057,0 5.663943,2.5398854 5.663943,5.6639447 V 32.785426 c 0,3.12406 -2.539886,5.663946 -5.663943,5.663946 z"
         id="path69"
         style="clip-rule:evenodd;fill:#fefefe;fill-rule:nonzero;stroke-width:0.0253989;image-rendering:optimizeQuality;shape-rendering:geometricPrecision;text-rendering:geometricPrecision" />
      <path
         class="fil16"
         d="M 28.398109,27.934246 V 1.6464326 c 0,-3.1240593 2.539887,-5.6639447 5.663944,-5.6639447 h 28.548314 c 3.124057,0 5.663943,2.5398854 5.663943,5.6639447 V 21.889319 H 42.13889 c -5.435356,0 -10.337334,2.336694 -13.740781,6.044927 z"
         id="path71"
         style="clip-rule:evenodd;fill:#fcdfe2;fill-rule:nonzero;stroke-width:0.0253989;image-rendering:optimizeQuality;shape-rendering:geometricPrecision;text-rendering:geometricPrecision" />
      <path
         class="fil11"
         d="m 59.156123,-4.0175121 v 0 H 27.128168 c -3.682836,0 -6.6799,2.9970648 -6.6799,6.6798986 V 5.202272 H 52.831806 V 2.6623865 c 0,-3.55583944 2.793876,-6.4767078 6.324317,-6.6544998 z"
         id="path73"
         style="clip-rule:evenodd;fill:#f6aab5;fill-rule:nonzero;stroke-width:0.0253989;image-rendering:optimizeQuality;shape-rendering:geometricPrecision;text-rendering:geometricPrecision" />
      <path
         class="fil0"
         d="M 57.936976,10.053453 H 36.017765 c -0.203192,0 -0.355584,-0.1523931 -0.355584,-0.3555841 0,-0.20319 0.152392,-0.355583 0.355584,-0.355583 h 21.919211 c 0.203192,0 0.355584,0.152393 0.355584,0.355583 0,0.203191 -0.152392,0.3555841 -0.355584,0.3555841 z"
         id="path75"
         style="clip-rule:evenodd;fill:#fefefe;fill-rule:nonzero;stroke-width:0.0253989;image-rendering:optimizeQuality;shape-rendering:geometricPrecision;text-rendering:geometricPrecision" />
      <path
         class="fil0"
         d="M 57.936976,19.273238 H 36.017765 c -0.203192,0 -0.355584,-0.152394 -0.355584,-0.355585 0,-0.20319 0.152392,-0.355583 0.355584,-0.355583 h 21.919211 c 0.203192,0 0.355584,0.152393 0.355584,0.355583 0,0.203191 -0.152392,0.355585 -0.355584,0.355585 z"
         id="path77"
         style="clip-rule:evenodd;fill:#fefefe;fill-rule:nonzero;stroke-width:0.0253989;image-rendering:optimizeQuality;shape-rendering:geometricPrecision;text-rendering:geometricPrecision" />
      <path
         class="fil0"
         d="M 47.675839,14.676045 H 36.043165 c -0.203192,0 -0.355584,-0.152393 -0.355584,-0.355584 0,-0.203191 0.152392,-0.355584 0.355584,-0.355584 h 11.632674 c 0.203192,0 0.355584,0.152393 0.355584,0.355584 0,0.203191 -0.152392,0.355584 -0.355584,0.355584 z"
         id="path79"
         style="clip-rule:evenodd;fill:#fefefe;fill-rule:nonzero;stroke-width:0.0253989;image-rendering:optimizeQuality;shape-rendering:geometricPrecision;text-rendering:geometricPrecision" />
      <path
         class="fil0"
         d="m 60.375267,14.676045 h -9.880155 c -0.203189,0 -0.355584,-0.152393 -0.355584,-0.355584 0,-0.203191 0.152395,-0.355584 0.355584,-0.355584 h 9.880155 c 0.20319,0 0.355585,0.152393 0.355585,0.355584 0,0.203191 -0.152395,0.355584 -0.355585,0.355584 z"
         id="path81"
         style="clip-rule:evenodd;fill:#fefefe;fill-rule:nonzero;stroke-width:0.0253989;image-rendering:optimizeQuality;shape-rendering:geometricPrecision;text-rendering:geometricPrecision" />
      <path
         class="fil11"
         d="M 112.64611,88.485116 H 82.929449 c -0.660368,0 -1.168347,-0.533377 -1.168347,-1.168348 V 76.573053 c 0,-0.660371 0.533376,-1.168347 1.168347,-1.168347 h 29.716661 c 0.66037,0 1.16835,0.533376 1.16835,1.168347 v 10.743715 c 0,0.660371 -0.53338,1.168348 -1.16835,1.168348 z"
         id="path151"
         style="clip-rule:evenodd;fill:#f6aab5;fill-rule:nonzero;stroke-width:0.0253989;image-rendering:optimizeQuality;shape-rendering:geometricPrecision;text-rendering:geometricPrecision" />
      <path
         class="fil0"
         d="m 89.58395,85.71664 h 32.58673 c 0.99055,0 1.80332,0.812763 1.80332,1.77792 v 9.981748 c 0,0.99056 -0.81277,1.77792 -1.80332,1.77792 H 89.58395 c -0.990555,0 -1.803318,-0.81276 -1.803318,-1.77792 V 87.49456 c 0,-0.990555 0.812763,-1.77792 1.803318,-1.77792 z"
         id="path153"
         style="clip-rule:evenodd;fill:#fefefe;fill-rule:nonzero;stroke-width:0.0253989;image-rendering:optimizeQuality;shape-rendering:geometricPrecision;text-rendering:geometricPrecision" />
      <path
         class="fil19"
         d="M 122.17068,99.279628 H 89.58395 c -0.990555,0 -1.803318,-0.81276 -1.803318,-1.77792 v -9.98175 c 0,-0.990555 0.812763,-1.777918 1.803318,-1.777918 h 32.58673 c 0.99055,0 1.80332,0.812763 1.80332,1.777918 v 9.98175 c 0,0.99056 -0.81277,1.77792 -1.80332,1.77792 z"
         id="path155"
         style="clip-rule:evenodd;fill:#9795c8;fill-rule:nonzero;stroke-width:0.0253989;image-rendering:optimizeQuality;shape-rendering:geometricPrecision;text-rendering:geometricPrecision" />
      <path
         class="fil0"
         d="m 112.49372,91.329786 c -0.66037,0 -1.19375,0.533376 -1.19375,1.193747 0,0.660371 0.53338,1.193747 1.19375,1.193747 0.66037,0 1.19374,-0.533376 1.19374,-1.193747 0,-0.660371 -0.53337,-1.193747 -1.19374,-1.193747 z m 0,2.743078 c -0.86357,0 -1.54933,-0.685771 -1.54933,-1.549331 0,-0.86356 0.68576,-1.549331 1.54933,-1.549331 0.86356,0 1.54933,0.685771 1.54933,1.549331 0,0.86356 -0.68577,1.549331 -1.54933,1.549331 z"
         id="path157"
         style="clip-rule:evenodd;fill:#fefefe;fill-rule:nonzero;stroke-width:0.0253989;image-rendering:optimizeQuality;shape-rendering:geometricPrecision;text-rendering:geometricPrecision" />
      <path
         class="fil0"
         d="m 105.99161,91.329786 c -0.66037,0 -1.19375,0.533376 -1.19375,1.193747 0,0.660371 0.53338,1.193747 1.19375,1.193747 0.66037,0 1.19375,-0.533376 1.19375,-1.193747 0,-0.660371 -0.53338,-1.193747 -1.19375,-1.193747 z m 0,2.743078 c -0.86356,0 -1.54933,-0.685771 -1.54933,-1.549331 0,-0.86356 0.68577,-1.549331 1.54933,-1.549331 0.86356,0 1.54933,0.685771 1.54933,1.549331 0,0.86356 -0.68577,1.549331 -1.54933,1.549331 z"
         id="path159"
         style="clip-rule:evenodd;fill:#fefefe;fill-rule:nonzero;stroke-width:0.0253989;image-rendering:optimizeQuality;shape-rendering:geometricPrecision;text-rendering:geometricPrecision" />
      <path
         class="fil0"
         d="m 99.946681,91.329786 c -0.66037,0 -1.193747,0.533376 -1.193747,1.193747 0,0.660371 0.533377,1.193747 1.193747,1.193747 0.660369,0 1.193749,-0.533376 1.193749,-1.193747 0,-0.660371 -0.53338,-1.193747 -1.193749,-1.193747 z m 0,2.743078 c -0.86356,0 -1.549328,-0.685771 -1.549328,-1.549331 0,-0.86356 0.685768,-1.549331 1.549328,-1.549331 0.863559,0 1.549329,0.685771 1.549329,1.549331 0,0.86356 -0.68577,1.549331 -1.549329,1.549331 z"
         id="path161"
         style="clip-rule:evenodd;fill:#fefefe;fill-rule:nonzero;stroke-width:0.0253989;image-rendering:optimizeQuality;shape-rendering:geometricPrecision;text-rendering:geometricPrecision" />
      <path
         class="fil0"
         d="m 104.44228,103.06406 c -0.1016,0 -0.17779,-0.0762 -0.17779,-0.17779 v -0.35559 c 0,-0.10159 0.0762,-0.17779 0.17779,-0.17779 0.1016,0 0.17779,0.0762 0.17779,0.17779 v 0.35559 c 0,0.10159 -0.0762,0.17779 -0.17779,0.17779 z"
         id="path167"
         style="clip-rule:evenodd;fill:#fefefe;fill-rule:nonzero;stroke-width:0.0253989;image-rendering:optimizeQuality;shape-rendering:geometricPrecision;text-rendering:geometricPrecision" />
      <path
         class="fil20"
         d="m 73.481075,126.4818 h -9.727761 c -1.295342,0 -2.336694,-1.04135 -2.336694,-2.33669 V 71.975859 h 15.163117 v 51.381881 c 0,1.72713 -1.396939,3.09867 -3.098662,3.09867 z"
         id="path169"
         style="clip-rule:evenodd;fill:#4a539e;fill-rule:nonzero;stroke-width:0.0253989;image-rendering:optimizeQuality;shape-rendering:geometricPrecision;text-rendering:geometricPrecision" />
      <path
         class="fil21"
         d="M 74.370035,126.4818 H 68.147316 V 71.975859 h 8.457819 V 124.2467 c 0,1.24455 -0.990555,2.2351 -2.2351,2.2351 z"
         id="path171"
         style="clip-rule:evenodd;fill:#586cb2;fill-rule:nonzero;stroke-width:0.0253989;image-rendering:optimizeQuality;shape-rendering:geometricPrecision;text-rendering:geometricPrecision" />
      <path
         class="fil22"
         d="m 42.13889,21.86392 h 48.511812 c 10.845308,0 19.633318,8.788004 19.633318,19.633315 v 34.491644 c 0,0.787366 -0.63498,1.447734 -1.44774,1.447734 H 23.648523 c -0.101595,0 -0.152393,-0.07619 -0.152393,-0.152392 V 40.50668 c 0,-10.286537 8.330823,-18.64276 18.64276,-18.64276 z"
         id="path173"
         style="clip-rule:evenodd;fill:#6e97ce;fill-rule:nonzero;stroke-width:0.0253989;image-rendering:optimizeQuality;shape-rendering:geometricPrecision;text-rendering:geometricPrecision" />
      <path
         class="fil23"
         d="M 55.092306,77.436613 H 29.668051 c -0.101595,0 -0.152392,-0.07619 -0.152392,-0.152392 v -1.066753 h 25.576647 v 1.244545 z M 102.99454,41.62423 H 57.759184 v -1.600129 c 0,-3.98762 -1.371537,-7.670453 -3.657433,-10.591321 h 30.75801 c 8.20383,0 15.239319,5.028972 18.160179,12.16605 z"
         id="path175"
         style="clip-rule:evenodd;fill:#739ed3;fill-rule:nonzero;stroke-width:0.0253989;image-rendering:optimizeQuality;shape-rendering:geometricPrecision;text-rendering:geometricPrecision" />
      <polygon
         transform="matrix(0.02539885,0,0,0.02539885,-47.925451,-24.336596)"
         class="fil24"
         points="5105,4007 4903,4007 4903,4014 5105,4014 "
         id="polygon177"
         style="clip-rule:evenodd;fill:#6779ba;fill-rule:nonzero;image-rendering:optimizeQuality;shape-rendering:geometricPrecision;text-rendering:geometricPrecision" />
      <path
         class="fil25"
         d="M 108.65849,77.614405 H 81.735704 v -0.177792 h 21.258836 5.84174 c 0.76197,0 1.39694,-0.609571 1.42234,-1.346139 -0.0508,0.863563 -0.76197,1.523931 -1.62553,1.523931 z"
         id="path179"
         style="clip-rule:evenodd;fill:#6873b5;fill-rule:nonzero;stroke-width:0.0253989;image-rendering:optimizeQuality;shape-rendering:geometricPrecision;text-rendering:geometricPrecision" />
      <polygon
         transform="matrix(0.02539885,0,0,0.02539885,-47.925451,-24.336596)"
         class="fil24"
         points="4306,4007 4056,4007 4056,4014 4306,4014 "
         id="polygon181"
         style="clip-rule:evenodd;fill:#6779ba;fill-rule:nonzero;image-rendering:optimizeQuality;shape-rendering:geometricPrecision;text-rendering:geometricPrecision" />
      <polygon
         transform="matrix(0.02539885,0,0,0.02539885,-47.925451,-24.336596)"
         class="fil26"
         points="4569,4007 4306,4007 4306,4014 4569,4014 "
         id="polygon183"
         style="clip-rule:evenodd;fill:#546ab0;fill-rule:nonzero;image-rendering:optimizeQuality;shape-rendering:geometricPrecision;text-rendering:geometricPrecision" />
      <polygon
         transform="matrix(0.02539885,0,0,0.02539885,-47.925451,-24.336596)"
         class="fil21"
         points="4903,4007 4569,4007 4569,4014 4903,4014 "
         id="polygon185"
         style="clip-rule:evenodd;fill:#586cb2;fill-rule:nonzero;image-rendering:optimizeQuality;shape-rendering:geometricPrecision;text-rendering:geometricPrecision" />
      <path
         class="fil28"
         d="M 102.99454,77.436613 H 55.066906 v -1.244542 h 0.533376 c 1.168347,0 2.108104,-0.939758 2.108104,-2.108107 v -1.06675 h 46.708494 v 2.971665 c 0,0.787366 -0.63497,1.447734 -1.44773,1.447734 z"
         id="path189"
         style="clip-rule:evenodd;fill:#5a71b5;fill-rule:nonzero;stroke-width:0.0253989;image-rendering:optimizeQuality;shape-rendering:geometricPrecision;text-rendering:geometricPrecision" />
      <path
         class="fil20"
         d="M 109.06487,77.436613 H 84.681969 v -4.267007 h 25.627441 v 3.047862 c 0,0.685769 -0.55877,1.219145 -1.21914,1.219145 z"
         id="path191"
         style="clip-rule:evenodd;fill:#4a539e;fill-rule:nonzero;stroke-width:0.0253989;image-rendering:optimizeQuality;shape-rendering:geometricPrecision;text-rendering:geometricPrecision" />
      <path
         class="fil30"
         d="M 104.44228,73.017214 H 57.733786 V 41.62423 h 45.235364 c 0.93975,2.311294 1.47313,4.825783 1.47313,7.467264 z"
         id="path195"
         style="clip-rule:evenodd;fill:#6d99d0;fill-rule:nonzero;stroke-width:0.0253989;image-rendering:optimizeQuality;shape-rendering:geometricPrecision;text-rendering:geometricPrecision" />
      <path
         class="fil21"
         d="M 55.600282,76.192071 H 25.604235 c -1.168347,0 -2.108105,-0.939758 -2.108105,-2.108107 V 40.049501 c 0,-9.448374 7.670455,-17.118827 17.118829,-17.118827 9.448374,0 17.118827,7.670453 17.118827,17.118827 v 34.034463 c 0,1.168349 -0.939757,2.108107 -2.108104,2.108107 z"
         id="path197"
         style="clip-rule:evenodd;fill:#586cb2;fill-rule:nonzero;stroke-width:0.0253989;image-rendering:optimizeQuality;shape-rendering:geometricPrecision;text-rendering:geometricPrecision" />
      <path
         class="fil31"
         d="M 55.270098,76.192071 H 25.27405 V 40.379685 c 0,-8.280027 6.705298,-14.985323 14.985325,-14.985323 8.280027,0 14.985323,6.705296 14.985323,14.985323 v 35.812386 z"
         id="path199"
         style="clip-rule:evenodd;fill:#454253;fill-rule:nonzero;stroke-width:0.0253989;image-rendering:optimizeQuality;shape-rendering:geometricPrecision;text-rendering:geometricPrecision" />
      <path
         class="fil32"
         d="M 55.270098,71.620275 H 31.623764 c -0.88896,0 -1.625526,-0.736566 -1.625526,-1.625526 V 55.060224 c 0,-1.11755 0.914358,-2.03191 2.031907,-2.03191 h 23.239953 z"
         id="path201"
         style="clip-rule:evenodd;fill:#7070b2;fill-rule:nonzero;stroke-width:0.0253989;image-rendering:optimizeQuality;shape-rendering:geometricPrecision;text-rendering:geometricPrecision" />
      <path
         class="fil33"
         d="M 55.270098,71.620275 H 31.29358 c -0.711168,0 -1.269945,-0.584174 -1.269945,-1.269942 v -0.355584 c 0,0.88896 0.736569,1.625526 1.625526,1.625526 H 55.295495 Z M 29.998238,55.060224 v -0.25399 c 0,-0.126994 0.0254,-0.253989 0.101595,-0.380981 -0.0762,0.203189 -0.101595,0.406381 -0.101595,0.634971 z"
         id="path203"
         style="clip-rule:evenodd;fill:#474b7c;fill-rule:nonzero;stroke-width:0.0253989;image-rendering:optimizeQuality;shape-rendering:geometricPrecision;text-rendering:geometricPrecision" />
      <path
         class="fil34"
         d="M 55.270098,71.620275 H 31.623764 c -0.88896,0 -1.625526,-0.736566 -1.625526,-1.625526 V 55.060224 c 0,-0.22859 0.0254,-0.431782 0.101595,-0.634971 0.0254,-0.0508 0.0508,-0.101598 0.101594,-0.152395 0.0762,-0.101595 0.203192,-0.152392 0.304787,-0.152392 0.101595,0 0.177792,0.0254 0.25399,0.101595 l 9.753158,8.076835 2.03191,1.676325 c 0.431779,0.355585 0.939757,0.533377 1.473134,0.533377 0.533376,0 1.066749,-0.177792 1.498531,-0.558777 l 9.727761,-8.280026 v 15.925083 z"
         id="path205"
         style="clip-rule:evenodd;fill:#5d61aa;fill-rule:nonzero;stroke-width:0.0253989;image-rendering:optimizeQuality;shape-rendering:geometricPrecision;text-rendering:geometricPrecision" />
      <path
         class="fil32"
         d="m 30.582412,71.77267 c -0.101598,0 -0.203193,-0.0508 -0.25399,-0.126995 -0.126995,-0.152392 -0.126995,-0.380982 0.0254,-0.507976 l 10.540524,-9.37218 c 0.152392,-0.126992 0.380981,-0.126992 0.507976,0.0254 0.126995,0.152392 0.126995,0.380984 -0.0254,0.507977 l -10.540526,9.372179 c -0.07619,0.0508 -0.152392,0.101595 -0.22859,0.101595 z"
         id="path207"
         style="clip-rule:evenodd;fill:#7070b2;fill-rule:nonzero;stroke-width:0.0253989;image-rendering:optimizeQuality;shape-rendering:geometricPrecision;text-rendering:geometricPrecision" />
      <path
         class="fil32"
         d="m 55.270098,70.248738 -8.610211,-7.619656 c -0.152395,-0.126994 -0.152395,-0.355584 -0.0254,-0.507979 0.126994,-0.152392 0.355584,-0.152392 0.507976,-0.0254 l 8.127635,7.213275 z"
         id="path209"
         style="clip-rule:evenodd;fill:#7070b2;fill-rule:nonzero;stroke-width:0.0253989;image-rendering:optimizeQuality;shape-rendering:geometricPrecision;text-rendering:geometricPrecision" />
      <path
         class="fil35"
         d="M 55.270098,76.192071 H 27.585346 v -1.727123 c 0,-1.574729 1.269942,-2.87007 2.870071,-2.87007 h 24.840078 v 4.597193 z"
         id="path211"
         style="clip-rule:evenodd;fill:#ef8696;fill-rule:nonzero;stroke-width:0.0253989;image-rendering:optimizeQuality;shape-rendering:geometricPrecision;text-rendering:geometricPrecision" />
      <path
         class="fil22"
         d="M 54.406537,82.541783 H 4.0152092 c -1.9049141,0 -3.42884531,-1.549329 -3.42884531,-3.428844 V 76.192071 H 58.444955 v 2.336694 c 0,2.2351 -1.803321,4.013018 -4.038418,4.013018 z"
         id="path213"
         style="clip-rule:evenodd;fill:#6e97ce;fill-rule:nonzero;stroke-width:0.0253989;image-rendering:optimizeQuality;shape-rendering:geometricPrecision;text-rendering:geometricPrecision" />
      <path
         class="fil21"
         d="M 54.406537,82.541783 H 38.583049 c -1.904913,0 -3.428844,-1.549329 -3.428844,-3.428844 v -2.920868 h 23.29075 v 2.336694 c 0,2.2351 -1.803321,4.013018 -4.038418,4.013018 z"
         id="path215"
         style="clip-rule:evenodd;fill:#586cb2;fill-rule:nonzero;stroke-width:0.0253989;image-rendering:optimizeQuality;shape-rendering:geometricPrecision;text-rendering:geometricPrecision" />
      <path
         class="fil20"
         d="m 76.427342,42.690982 c 0,2.717676 -2.209699,4.927378 -4.927377,4.927378 -2.717679,0 -4.927378,-2.209702 -4.927378,-4.927378 0,-2.717678 2.209699,-4.927378 4.927378,-4.927378 2.717678,0 4.927377,2.2097 4.927377,4.927378 z"
         id="path217"
         style="clip-rule:evenodd;fill:#4a539e;fill-rule:nonzero;stroke-width:0.0253989;image-rendering:optimizeQuality;shape-rendering:geometricPrecision;text-rendering:geometricPrecision" />
      <path
         class="fil20"
         d="m 71.474567,44.26571 v 0 c -0.88896,0 -1.600128,-0.711168 -1.600128,-1.600128 V 11.272598 c 0,-0.88896 0.711168,-1.6001281 1.600128,-1.6001281 0.888958,0 1.600126,0.7111681 1.600126,1.6001281 v 31.392984 c 0,0.88896 -0.711168,1.600128 -1.600126,1.600128 z"
         id="path219"
         style="clip-rule:evenodd;fill:#4a539e;fill-rule:nonzero;stroke-width:0.0253989;image-rendering:optimizeQuality;shape-rendering:geometricPrecision;text-rendering:geometricPrecision" />
      <path
         class="fil21"
         d="m 76.427342,42.690982 c 0,2.336694 -1.904912,4.241607 -4.241609,4.241607 -2.336694,0 -4.241607,-1.904913 -4.241607,-4.241607 0,-2.336697 1.904913,-4.24161 4.241607,-4.24161 2.336697,0 4.241609,1.904913 4.241609,4.24161 z"
         id="path221"
         style="clip-rule:evenodd;fill:#586cb2;fill-rule:nonzero;stroke-width:0.0253989;image-rendering:optimizeQuality;shape-rendering:geometricPrecision;text-rendering:geometricPrecision" />
      <polygon
         transform="matrix(0.02539885,0,0,0.02539885,-47.925451,-24.336596)"
         class="fil32"
         points="4785,1403 5355,1403 4785,1704 "
         id="polygon223"
         style="clip-rule:evenodd;fill:#7070b2;fill-rule:nonzero;image-rendering:optimizeQuality;shape-rendering:geometricPrecision;text-rendering:geometricPrecision" />
      <polygon
         transform="matrix(0.02539885,0,0,0.02539885,-47.925451,-24.336596)"
         class="fil32"
         points="4785,1403 5355,1403 4785,1704 "
         id="polygon225"
         style="clip-rule:evenodd;fill:#7070b2;fill-rule:nonzero;image-rendering:optimizeQuality;shape-rendering:geometricPrecision;text-rendering:geometricPrecision" />
      <path
         class="fil21"
         d="m 72.185733,44.26571 v 0 c -0.888958,0 -1.600126,-0.711168 -1.600126,-1.600128 V 11.272598 c 0,-0.88896 0.711168,-1.6001281 1.600126,-1.6001281 0.88896,0 1.600129,0.7111681 1.600129,1.6001281 v 31.392984 c 0,0.88896 -0.711169,1.600128 -1.600129,1.600128 z"
         id="path227"
         style="clip-rule:evenodd;fill:#586cb2;fill-rule:nonzero;stroke-width:0.0253989;image-rendering:optimizeQuality;shape-rendering:geometricPrecision;text-rendering:geometricPrecision" />
      <path
         class="fil20"
         d="m 72.185733,40.405085 c -1.219144,0 -2.209699,0.990555 -2.209699,2.2097 0,1.219144 0.990555,2.209699 2.209699,2.209699 1.219147,0 2.209702,-0.990555 2.209702,-2.209699 0,-1.219145 -0.990555,-2.2097 -2.209702,-2.2097 z m 0,4.774983 c -1.422334,0 -2.565284,-1.142947 -2.565284,-2.565283 0,-1.422337 1.14295,-2.565284 2.565284,-2.565284 1.422336,0 2.565286,1.142947 2.565286,2.565284 0,1.422336 -1.14295,2.565283 -2.565286,2.565283 z"
         id="path229"
         style="clip-rule:evenodd;fill:#4a539e;fill-rule:nonzero;stroke-width:0.0253989;image-rendering:optimizeQuality;shape-rendering:geometricPrecision;text-rendering:geometricPrecision" />
      <path
         class="fil11"
         d="M 39.802193,63.289451 H 1.9833009 c -1.09215074,0 -1.98111066,-0.888958 -1.98111066,-1.98111 V 37.966794 c 0,-1.244545 1.01595416,-2.2351 2.23509916,-2.2351 H 38.964033 c 1.473134,0 2.666878,1.193747 2.666878,2.666881 v 23.06216 c 0,1.015953 -0.812763,1.828716 -1.828718,1.828716 z"
         id="path251"
         style="clip-rule:evenodd;fill:#f6aab5;fill-rule:nonzero;stroke-width:0.0253989;image-rendering:optimizeQuality;shape-rendering:geometricPrecision;text-rendering:geometricPrecision" />
      <path
         class="fil35"
         d="M 39.751396,63.289451 H 1.8817054 c -1.04135297,0 -1.87951516,-0.838161 -1.87951516,-1.879513 V 38.373175 c 0,-0.279387 0.10159542,-0.558773 0.27938741,-0.761966 0.22858968,-0.253986 0.58417364,-0.279386 0.86356105,-0.07619 l 14.4773463,11.988257 2.997065,2.489089 c 1.269943,1.066753 3.124059,1.041353 4.394002,-0.0254 l 17.779199,-15.08692 c 1.11755,1.066753 0.86356,2.108105 0.86356,2.108105 v 22.401792 c 0,1.041352 -0.838163,1.879513 -1.879515,1.879513 z"
         id="path253"
         style="clip-rule:evenodd;fill:#ef8696;fill-rule:nonzero;stroke-width:0.0253989;image-rendering:optimizeQuality;shape-rendering:geometricPrecision;text-rendering:geometricPrecision" />
      <path
         class="fil11"
         d="m 1.1197398,63.137059 c -0.1015954,0 -0.20319081,-0.0508 -0.25398851,-0.126995 -0.12699428,-0.152392 -0.12699428,-0.380982 0.0253989,-0.507976 L 16.257457,48.837504 c 0.152393,-0.126995 0.380983,-0.126995 0.507977,0.0254 0.126994,0.152395 0.126994,0.380984 -0.0254,0.507979 L 1.3737283,63.035464 c -0.076196,0.0508 -0.1523931,0.101595 -0.2285896,0.101595 z"
         id="path255"
         style="clip-rule:evenodd;fill:#f6aab5;fill-rule:nonzero;stroke-width:0.0253989;image-rendering:optimizeQuality;shape-rendering:geometricPrecision;text-rendering:geometricPrecision" />
      <path
         class="fil11"
         d="m 40.259375,63.162459 c -0.0762,0 -0.152395,-0.0254 -0.228589,-0.0762 l -15.213915,-13.2328 c -0.152393,-0.126995 -0.152393,-0.355584 -0.0254,-0.507979 0.126994,-0.152392 0.355584,-0.152392 0.507977,-0.0254 l 15.213914,13.232802 c 0.152394,0.126995 0.152394,0.355584 0.0254,0.507977 -0.0762,0.0762 -0.177792,0.126994 -0.25399,0.126994 z"
         id="path257"
         style="clip-rule:evenodd;fill:#f6aab5;fill-rule:nonzero;stroke-width:0.0253989;image-rendering:optimizeQuality;shape-rendering:geometricPrecision;text-rendering:geometricPrecision" />
      <path
         class="fil20"
         d="m 121.38332,32.226653 c 0,4.292407 -3.47965,7.746651 -7.74665,7.746651 -4.29241,0 -7.74666,-3.479644 -7.74666,-7.746651 0,-4.292407 3.47965,-7.746651 7.74666,-7.746651 4.2924,0 7.74665,3.479644 7.74665,7.746651 z"
         id="path259"
         style="clip-rule:evenodd;fill:#4a539e;fill-rule:nonzero;stroke-width:0.0253989;image-rendering:optimizeQuality;shape-rendering:geometricPrecision;text-rendering:geometricPrecision" />
      <path
         class="fil35"
         d="m 115.69397,21.279747 c 0,6.984686 -5.66394,12.648629 -12.64863,12.648629 -6.984684,0 -12.648627,-5.663943 -12.648627,-12.648629 0,-6.984685 5.663943,-12.6486291 12.648627,-12.6486291 6.98469,0 12.64863,5.6639441 12.64863,12.6486291 z"
         id="path261"
         style="clip-rule:evenodd;fill:#ef8696;fill-rule:nonzero;stroke-width:0.0253989;image-rendering:optimizeQuality;shape-rendering:geometricPrecision;text-rendering:geometricPrecision" />
      <path
         class="fil0"
         d="m 100.63245,27.350072 c 0.22859,1.14295 1.21915,1.981111 2.41289,1.981111 1.16835,0 2.1843,-0.838161 2.41289,-1.981111 h -4.80038 z m 2.41289,2.336695 c -1.42233,0 -2.61608,-1.06675 -2.79387,-2.489087 l -0.0254,-0.203192 h 5.61315 l -0.0254,0.203192 c -0.1524,1.422337 -1.37154,2.489087 -2.79388,2.489087 z"
         id="path263"
         style="clip-rule:evenodd;fill:#fefefe;fill-rule:nonzero;stroke-width:0.0253989;image-rendering:optimizeQuality;shape-rendering:geometricPrecision;text-rendering:geometricPrecision" />
      <path
         class="fil0"
         d="m 98.194161,24.073621 h 9.676959 v -4.394002 c 0,-2.539885 -2.0827,-4.622591 -4.62259,-4.622591 h -0.43178 c -2.53988,0 -4.622589,2.082706 -4.622589,4.622591 z m 10.032549,0.355584 H 97.838577 v -4.749586 c 0,-2.743076 2.235103,-4.978175 4.978173,-4.978175 h 0.43178 c 2.74308,0 4.97818,2.235099 4.97818,4.978175 z"
         id="path265"
         style="clip-rule:evenodd;fill:#fefefe;fill-rule:nonzero;stroke-width:0.0253989;image-rendering:optimizeQuality;shape-rendering:geometricPrecision;text-rendering:geometricPrecision" />
      <path
         class="fil0"
         d="m 98.016369,24.429205 c -0.685768,0 -1.219145,0.558773 -1.219145,1.219144 v 0.126995 c 0,0.685768 0.558774,1.219144 1.219145,1.219144 h 10.032551 c 0.68576,0 1.21914,-0.558773 1.21914,-1.219144 v -0.126995 c 0,-0.685768 -0.55877,-1.219144 -1.21914,-1.219144 z m 10.032551,2.946267 H 98.016369 c -0.863561,0 -1.574729,-0.711168 -1.574729,-1.574728 v -0.126995 c 0,-0.863563 0.711168,-1.574728 1.574729,-1.574728 h 10.032551 c 0.86356,0 1.57472,0.711165 1.57472,1.574728 v 0.126995 c 0,0.86356 -0.71116,1.574728 -1.57472,1.574728 z"
         id="path267"
         style="clip-rule:evenodd;fill:#fefefe;fill-rule:nonzero;stroke-width:0.0253989;image-rendering:optimizeQuality;shape-rendering:geometricPrecision;text-rendering:geometricPrecision" />
      <path
         class="fil0"
         d="m 101.97859,22.905274 h -3.962221 c -0.101595,0 -0.177792,-0.0762 -0.177792,-0.177793 0,-0.101594 0.0762,-0.177792 0.177792,-0.177792 h 3.962221 c 0.1016,0 0.17779,0.0762 0.17779,0.177792 0,0.101595 -0.0762,0.177793 -0.17779,0.177793 z"
         id="path269"
         style="clip-rule:evenodd;fill:#fefefe;fill-rule:nonzero;stroke-width:0.0253989;image-rendering:optimizeQuality;shape-rendering:geometricPrecision;text-rendering:geometricPrecision" />
      <path
         class="fil0"
         d="m 102.56277,22.905274 c -0.0508,0 -0.1016,-0.0254 -0.127,-0.0508 l -0.0254,-0.0508 -0.0254,-0.0762 0.0254,-0.0762 0.0254,-0.0508 0.0508,-0.0508 c 0.0762,-0.0254 0.15239,0 0.20319,0.0508 l 0.0508,0.0508 0.0254,0.0762 -0.0254,0.0762 -0.0508,0.0508 -0.0508,0.0508 z"
         id="path271"
         style="clip-rule:evenodd;fill:#fefefe;fill-rule:nonzero;stroke-width:0.0253989;image-rendering:optimizeQuality;shape-rendering:geometricPrecision;text-rendering:geometricPrecision" />
      <path
         class="fil0"
         d="m 103.09614,13.736287 c -0.1016,0 -0.17779,-0.0762 -0.17779,-0.177792 v -2.590683 c 0,-0.101595 0.0762,-0.177792 0.17779,-0.177792 0.1016,0 0.17779,0.0762 0.17779,0.177792 v 2.590683 c 0,0.101596 -0.0762,0.177792 -0.17779,0.177792 z"
         id="path273"
         style="clip-rule:evenodd;fill:#fefefe;fill-rule:nonzero;stroke-width:0.0253989;image-rendering:optimizeQuality;shape-rendering:geometricPrecision;text-rendering:geometricPrecision" />
      <path
         class="fil0"
         d="m 99.5403,14.498253 c -0.0508,0 -0.101595,-0.0254 -0.152392,-0.0762 L 98.65134,13.355304 c -0.0508,-0.0762 -0.0254,-0.177791 0.0508,-0.253988 0.0762,-0.0508 0.203192,-0.0254 0.253989,0.0508 l 0.736566,1.066751 c 0.0508,0.0762 0.0254,0.177792 -0.0508,0.253989 -0.0254,0.0254 -0.0762,0.0254 -0.101595,0.0254 z"
         id="path277"
         style="clip-rule:evenodd;fill:#fefefe;fill-rule:nonzero;stroke-width:0.0253989;image-rendering:optimizeQuality;shape-rendering:geometricPrecision;text-rendering:geometricPrecision" />
    </g>
  </g>
</svg>
