<?xml version="1.0" encoding="UTF-8" standalone="no"?>
<svg
   xmlns:dc="http://purl.org/dc/elements/1.1/"
   xmlns:cc="http://creativecommons.org/ns#"
   xmlns:rdf="http://www.w3.org/1999/02/22-rdf-syntax-ns#"
   xmlns:svg="http://www.w3.org/2000/svg"
   xmlns="http://www.w3.org/2000/svg"
   xmlns:sodipodi="http://sodipodi.sourceforge.net/DTD/sodipodi-0.dtd"
   xmlns:inkscape="http://www.inkscape.org/namespaces/inkscape"
   inkscape:version="1.0 (4035a4fb49, 2020-05-01)"
   sodipodi:docname="delivered-product.svg"
   version="1.1"
   width="511.99939"
   viewBox="0 0 511.42739 468.15301"
   height="468.67661"
   enable-background="new 0 0 511.428 511.428"
   id="Layer_1">
  <metadata
     id="metadata37">
    <rdf:RDF>
      <cc:Work
         rdf:about="">
        <dc:format>image/svg+xml</dc:format>
        <dc:type
           rdf:resource="http://purl.org/dc/dcmitype/StillImage" />
      </cc:Work>
    </rdf:RDF>
  </metadata>
  <defs
     id="defs35" />
  <sodipodi:namedview
     inkscape:current-layer="Layer_1"
     inkscape:window-maximized="1"
     inkscape:window-y="-8"
     inkscape:window-x="-8"
     inkscape:cy="291.48186"
     inkscape:cx="340.1217"
     inkscape:zoom="0.84765625"
     showgrid="false"
     id="namedview33"
     inkscape:window-height="1017"
     inkscape:window-width="1920"
     inkscape:pageshadow="2"
     inkscape:pageopacity="0"
     guidetolerance="10"
     gridtolerance="10"
     objecttolerance="10"
     borderopacity="1"
     bordercolor="#666666"
     pagecolor="#ffffff" />
  <g
     transform="translate(-0.00161454,-21.637)"
     id="g30">
    <g
       id="g20">
      <g
         id="g8">
        <g
           id="g6">
          <g
             id="g4">
            <path
               id="path2"
               fill="#fdbf00"
               d="M 453.736,49.118 H 308.956 V 60.116 H 209.622 V 49.118 H 65.795 c -9.475,0 -17.156,7.681 -17.156,17.156 v 320.102 c 0,8.948 7.254,16.202 16.202,16.202 h 380.2 c 13.75,0 24.897,-11.147 24.897,-24.897 V 65.321 c 0.001,-8.949 -7.253,-16.203 -16.202,-16.203 z" />
          </g>
        </g>
      </g>
      <path
         id="path10"
         fill="#ff9100"
         d="M 447.438,21.638 H 308.956 v 10.998 h -49.498 v 89.897 h -0.169 v 280.612 h 195.265 c 8.497,0 15.384,-6.893 15.384,-15.395 V 38.86 c -0.963,-2.389 -4.693,-17.222 -22.5,-17.222 z" />
      <path
         id="path12"
         fill="#ff9100"
         d="M 452.786,21.638 H 308.956 V 32.636 H 209.622 V 21.638 H 64.447 c -8.73,0 -15.808,7.082 -15.808,15.819 v 85.075 h 421.3 V 38.804 c 0,-9.481 -7.68,-17.166 -17.153,-17.166 z" />
      <path
         id="path14"
         fill="#ff641a"
         d="M 453.782,21.638 H 308.956 v 10.998 h -49.667 v 89.897 h 210.65 V 37.806 c 0,-8.929 -7.234,-16.168 -16.157,-16.168 z" />
      <path
         id="path16"
         fill="#ffe470"
         d="M 302.368,192.753 H 216.21 c -3.639,0 -6.588,-2.95 -6.588,-6.588 V 21.638 h 99.334 v 164.527 c 0,3.638 -2.95,6.588 -6.588,6.588 z" />
      <path
         id="path18"
         fill="#ffda2d"
         d="m 259.289,21.993 v 170.404 c 0,0.196 0.159,0.356 0.356,0.356 h 44.278 c 2.78,0 5.033,-2.253 5.033,-5.033 V 21.993 c 0,-0.196 -0.159,-0.356 -0.356,-0.356 h -48.956 c -0.196,0.001 -0.355,0.16 -0.355,0.356 z" />
    </g>
    <path
       id="path22"
       fill="#ffd9b3"
       d="m 278.863,480.967 c 32.819,0 65.647,-3.855 97.572,-11.456 l 53.488,-12.801 0.23,-131.606 -36.311,-18.444 c -28.425,-14.347 -61.332,-14.878 -90.245,-1.437 l -33.615,15.628 c -7.34,3.413 -15.338,5.181 -23.432,5.181 h -76.838 c -10.999,0 -19.916,8.917 -19.916,19.916 0,10.999 8.917,19.916 19.916,19.916 h 135.292 c 10.247,0 18.728,8.611 17.869,18.821 -0.748,8.89 -8.201,15.873 -17.285,15.873 l -154.826,-2.171 c -20.126,0.265 -43.244,-9.191 -57.663,-25.281 l -61.24,-59.998 c -3.513,-3.814 -8.316,-5.781 -13.155,-5.781 -5.612,0 -13.516,6.433 -17.292,11.9 -0.149,0.215 1.954,-3.345 1.834,-3.113 -3.499,6.773 -4.89,17.957 -0.467,23.319 l 78.135,94.723 c 26.526,32.157 67.888,46.809 109.574,46.809 h 88.375 z" />
    <path
       id="path24"
       fill="#ffcc99"
       d="m 322.437,387.748 c -1.995,7.379 -8.73,12.81 -16.74,12.81 l -154.826,-2.171 c -12.878,0.17 -26.972,-3.657 -39.238,-10.64 H 42.74 l 38.282,46.409 c 26.526,32.157 67.888,46.809 109.574,46.809 h 88.376 c 32.819,0 65.647,-3.855 97.572,-11.456 l 53.488,-12.801 0.121,-68.961 H 322.437 Z" />
    <path
       id="path26"
       fill="#4d2ee6"
       d="m 482.44,489.79 h -24.8 c -16.01,0 -28.988,-14.048 -28.988,-31.378 v -140.35 c 0,-17.33 12.978,-31.378 28.988,-31.378 h 24.801 c 16.01,0 28.988,14.049 28.988,31.378 v 140.351 c -10e-4,17.329 -12.979,31.377 -28.989,31.377 z" />
    <path
       id="path28"
       fill="#012f7e"
       d="m 428.652,387.748 v 70.664 c 0,17.33 12.978,31.378 28.988,31.378 h 24.801 c 16.01,0 28.988,-14.049 28.988,-31.378 v -70.664 z" />
  </g>
  <g
     transform="translate(-282.81734,-5.4403989)"
     id="g868">
    <circle
       style="fill:#00bd22;fill-opacity:1;stroke:none;stroke-width:29.9665;stroke-linecap:round;stroke-linejoin:round;stroke-miterlimit:4;stroke-dasharray:none;stroke-opacity:1"
       id="path864"
       cx="397.71188"
       cy="120.33494"
       r="114.89454" />
    <path
       style="fill:none;stroke:#ffffff;stroke-width:39.9553;stroke-linecap:round;stroke-linejoin:round;stroke-miterlimit:4;stroke-dasharray:none;stroke-opacity:1"
       d="m 335.21748,124.0849 39.16316,39.16316 85.82562,-85.825631"
       id="path862" />
  </g>
</svg>
